<?xml version="1.0" encoding="iso-8859-1"?>
<!-- Generator: Adobe Illustrator 19.0.0, SVG Export Plug-In . SVG Version: 6.00 Build 0)  -->
<svg version="1.1" id="Capa_1" xmlns="http://www.w3.org/2000/svg" xmlns:xlink="http://www.w3.org/1999/xlink" x="0px" y="0px"
	 viewBox="0 0 294.843 294.843" style="enable-background:new 0 0 294.843 294.843;" xml:space="preserve">
<path d="M147.421,0C88.601,0,37.725,34.632,14.089,84.572c-0.144,0.263-0.276,0.529-0.377,0.807C4.921,104.248,0,125.269,0,147.421
	c0,23.964,5.882,47.756,17.009,68.805c1.549,2.929,5.181,4.049,8.108,2.5c2.93-1.548,4.05-5.179,2.501-8.108
	C17.401,191.291,12,169.438,12,147.421c0-17.453,3.32-34.145,9.36-49.479l86.452,86.452c0.357,0.357,0.755,0.641,1.169,0.889
	c9.359,9.531,22.377,15.458,36.759,15.458c1.531,0,3.043-0.08,4.54-0.211l-66.448,66.448c-8.341-4.432-16.244-9.743-23.549-15.889
	c-2.534-2.133-6.32-1.809-8.454,0.728c-2.134,2.536-1.808,6.321,0.728,8.454c8.558,7.201,17.869,13.35,27.719,18.385
	c0.059,0.064,0.101,0.138,0.164,0.2c1.033,1.034,2.353,1.584,3.703,1.706c19.635,9.323,41.255,14.282,63.278,14.282
	c81.288,0,147.421-66.133,147.421-147.421S228.709,0,147.421,0z M147.421,282.843c-17.988,0-35.686-3.598-52.068-10.416
	l86.277-86.277c0.01-0.01,0.017-0.023,0.027-0.033c9.629-9.37,15.627-22.454,15.627-36.92c0-15.869-7.213-30.082-18.528-39.544
	h66.664c3.313,0,6-2.686,6-6s-2.687-6-6-6h-99.681c-10.258,0-20.168,3.007-28.659,8.696c-2.753,1.844-3.489,5.571-1.645,8.324
	c1.843,2.752,5.57,3.492,8.324,1.645c6.508-4.36,14.108-6.665,21.979-6.665c21.805,0,39.544,17.74,39.544,39.544
	s-17.739,39.544-39.544,39.544s-39.545-17.739-39.545-39.544c0-3.313-2.687-6-6-6s-6,2.687-6,6c0,1.635,0.085,3.249,0.235,4.845
	L26.63,86.241C49.014,42.227,94.752,12,147.421,12c74.671,0,135.421,60.75,135.421,135.421S222.092,282.843,147.421,282.843z"/>
<g>
</g>
<g>
</g>
<g>
</g>
<g>
</g>
<g>
</g>
<g>
</g>
<g>
</g>
<g>
</g>
<g>
</g>
<g>
</g>
<g>
</g>
<g>
</g>
<g>
</g>
<g>
</g>
<g>
</g>
</svg>
